<svg width="32" height="32" viewBox="0 0 32 32" fill="none" xmlns="http://www.w3.org/2000/svg">
<path fill-rule="evenodd" clip-rule="evenodd" d="M29.5548 7.82776L8.70281 28.6811L3.32014 23.2984L24.1721 2.44509C24.8881 1.72909 25.8428 1.33442 26.8601 1.33309H26.8655C27.8841 1.33442 28.8388 1.72909 29.5548 2.44509C31.0375 3.92909 31.0375 6.34376 29.5548 7.82776ZM2.75614 24.6198L7.38014 29.2438L1.47081 30.5291L2.75614 24.6198ZM30.4975 1.50242C29.4961 0.502423 28.1828 0.00108919 26.8668 -0.000244141H26.8601C25.5441 0.00108919 24.2308 0.502423 23.2295 1.50242L1.93081 22.8011C1.80947 22.9211 1.72681 23.0744 1.69214 23.2411L0.0201397 30.9211C-0.0438603 31.2171 0.0468064 31.5251 0.26014 31.7398C0.42814 31.9091 0.65614 31.9998 0.889473 31.9998C0.95214 31.9998 1.01614 31.9931 1.07881 31.9798L8.75881 30.3078C8.92547 30.2731 9.07881 30.1891 9.19881 30.0704L30.4975 8.77042C32.5015 6.76642 32.5015 3.50642 30.4975 1.50242Z" fill="white"/>
</svg>
